<svg xmlns="http://www.w3.org/2000/svg" width="400" height="80" viewBox="0 0 400 80">
  <rect width="400" height="80" fill="none"/>

  <g transform="translate(0 0)">
    <rect x="38" y="52" width="4" height="8" fill="#2f8f3e"/>
    <rect x="34" y="52" width="4" height="4" fill="#54c863"/>
    <rect x="42" y="52" width="4" height="4" fill="#54c863"/>
  </g>

  <g transform="translate(80 0)">
    <rect x="38" y="44" width="4" height="16" fill="#2f8f3e"/>
    <rect x="34" y="48" width="4" height="4" fill="#54c863"/>
    <rect x="42" y="48" width="4" height="4" fill="#54c863"/>
    <rect x="36" y="36" width="8" height="6" fill="#ff91c6"/>
  </g>

  <g transform="translate(160 0)">
    <rect x="38" y="34" width="4" height="26" fill="#2f8f3e"/>
    <rect x="34" y="42" width="4" height="4" fill="#4dbb5c"/>
    <rect x="42" y="42" width="4" height="4" fill="#4dbb5c"/>
    <rect x="34" y="24" width="4" height="4" fill="#ffd7ea"/>
    <rect x="38" y="20" width="4" height="4" fill="#ffd7ea"/>
    <rect x="42" y="24" width="4" height="4" fill="#ffd7ea"/>
    <rect x="34" y="28" width="12" height="8" fill="#ff77b7"/>
  </g>

  <g transform="translate(240 0)">
    <rect x="38" y="30" width="4" height="30" fill="#2f8f3e"/>
    <rect x="34" y="40" width="4" height="4" fill="#4dbb5c"/>
    <rect x="42" y="40" width="4" height="4" fill="#4dbb5c"/>
    <rect x="32" y="22" width="4" height="4" fill="#ffe6f2"/>
    <rect x="36" y="18" width="8" height="4" fill="#ffe6f2"/>
    <rect x="44" y="22" width="4" height="4" fill="#ffe6f2"/>
    <rect x="32" y="26" width="16" height="10" fill="#f560a8"/>
  </g>

  <g transform="translate(320 0)">
    <rect x="38" y="28" width="4" height="32" fill="#2f8f3e"/>
    <rect x="34" y="38" width="4" height="4" fill="#4dbb5c"/>
    <rect x="42" y="38" width="4" height="4" fill="#4dbb5c"/>
    <rect x="28" y="22" width="4" height="4" fill="#fff0f7"/>
    <rect x="32" y="18" width="4" height="4" fill="#fff0f7"/>
    <rect x="36" y="14" width="8" height="4" fill="#fff0f7"/>
    <rect x="44" y="18" width="4" height="4" fill="#fff0f7"/>
    <rect x="48" y="22" width="4" height="4" fill="#fff0f7"/>
    <rect x="30" y="24" width="20" height="12" fill="#e84e9f"/>
    <rect x="36" y="20" width="8" height="4" fill="#ff9bcb"/>
  </g>
</svg>
